HIERARCHY
ROOT Hips
{
  OFFSET 196.326 95.9168 97.7182
  CHANNELS 6 Xposition Yposition Zposition Zrotation Xrotation Yrotation
  JOINT LeftUpLeg
  {
    OFFSET 8.64259 1.95398 -2.38835
    CHANNELS 3 Zrotation Xrotation Yrotation
    JOINT LeftLeg
    {
      OFFSET 43.7702 0 0
      CHANNELS 3 Zrotation Xrotation Yrotation
      JOINT LeftFoot
      {
        OFFSET 40.6238 0 0
        CHANNELS 3 Zrotation Xrotation Yrotation
        JOINT LeftToeBase
        {
          OFFSET 12.7242 0 0
          CHANNELS 3 Zrotation Xrotation Yrotation
          End Site
          {
            OFFSET 0 0 0
          }
        }
      }
    }
  }
  JOINT RightUpLeg
  {
    OFFSET -8.2249 1.95398 -2.59336
    CHANNELS 3 Zrotation Xrotation Yrotation
    JOINT RightLeg
    {
      OFFSET 43.5653 0 0
      CHANNELS 3 Zrotation Xrotation Yrotation
      JOINT RightFoot
      {
        OFFSET 40.6238 0 0
        CHANNELS 3 Zrotation Xrotation Yrotation
        JOINT RightToeBase
        {
          OFFSET 12.7242 0 0
          CHANNELS 3 Zrotation Xrotation Yrotation
          End Site
          {
            OFFSET 0 0 0
          }
        }
      }
    }
  }
  JOINT Spine
  {
    OFFSET 0.165834 0.87714 6.61349
    CHANNELS 3 Zrotation Xrotation Yrotation
    JOINT Spine1
    {
      OFFSET 7.38963 1.71661e-005 0
      CHANNELS 3 Zrotation Xrotation Yrotation
      JOINT Spine2
      {
        OFFSET 11.9445 1.14441e-005 0
        CHANNELS 3 Zrotation Xrotation Yrotation
        JOINT Spine3
        {
          OFFSET 14.7254 4.19617e-005 0
          CHANNELS 3 Zrotation Xrotation Yrotation
          JOINT Spine4
          {
            OFFSET 10.9679 0 0
            CHANNELS 3 Zrotation Xrotation Yrotation
            JOINT RightShoulder
            {
              OFFSET 2.46616 -1.6653 3.69651
              CHANNELS 3 Zrotation Xrotation Yrotation
              JOINT RightArm
              {
                OFFSET 13.0012 0 0
                CHANNELS 3 Zrotation Xrotation Yrotation
                JOINT RightForeArm
                {
                  OFFSET 28.7848 1.52588e-005 0
                  CHANNELS 3 Zrotation Xrotation Yrotation
                  JOINT RightHand
                  {
                    OFFSET 26.5688 1.52588e-005 0
                    CHANNELS 3 Zrotation Xrotation Yrotation
                    End Site
                    {
                      OFFSET 0 0 0
                    }
                  }
                }
              }
            }
            JOINT LeftShoulder
            {
              OFFSET 2.38034 -1.29275 -3.75231
              CHANNELS 3 Zrotation Xrotation Yrotation
              JOINT LeftArm
              {
                OFFSET 16.3182 6.10351e-005 0
                CHANNELS 3 Zrotation Xrotation Yrotation
                JOINT LeftForeArm
                {
                  OFFSET 27.0901 0 0
                  CHANNELS 3 Zrotation Xrotation Yrotation
                  JOINT LeftHand
                  {
                    OFFSET 24.5451 1.52588e-005 0
                    CHANNELS 3 Zrotation Xrotation Yrotation
                    End Site
                    {
                      OFFSET 0 0 0
                    }
                  }
                }
              }
            }
            JOINT Neck
            {
              OFFSET 5.0226 -0.0266342 0
              CHANNELS 3 Zrotation Xrotation Yrotation
              JOINT Head
              {
                OFFSET 6.69363 2.86102e-005 0
                CHANNELS 3 Zrotation Xrotation Yrotation
                End Site
                {
                  OFFSET 0 0 0
                }
              }
            }
          }
        }
      }
    }
  }
}
MOTION
Frames:	12
Frame Time:	0.0416667
35.1608 97.4694 -243.064 -21.8825 -84.5092 -21.98 -173.015 7.5064 87.5481 -6.44908 16.1862 -2.42485 60.1045 7.81924 17.7617 36.1421 7.52342 -27.5081 178.491 9.47646 92.0302 -14.5488 4.86482 0.609108 67.4707 -2.29277 -1.21926 29.8212 -1.19932 23.0032 -0.0716736 6.66975 -89.9291 13.5344 -0.107736 0.155921 1.86348 -0.100778 0.160499 -20.6717 -0.149617 0.116322 -0.659008 -0.149621 0.116327 78.4366 -52.7262 -117.072 30.5851 -6.69417 13.9166 -24.3352 -33.4726 -43.4289 -4.14814 -0.581967 5.28366 -102.74 -43.1602 57.1068 -32.4297 9.40724 6.28344 3.75957 11.6745 -28.1747 9.26877 0.918998 5.5089 17.2045 3.02018 0.128271 -0.52995 3.00383 2.07234 
35.077 97.4197 -243.149 -30.9485 -83.9391 -30.9963 -172.945 7.74019 87.6258 -6.72378 15.6112 -2.41964 60.0274 7.99071 18.1483 36.2873 7.60472 -28.2914 178.825 9.88236 92.2236 -14.8835 3.95216 0.309958 67.5137 -2.31 -1.22701 30.1223 -1.12389 23.1114 -0.0584134 6.68609 -89.9734 13.5017 -0.10294 0.0664721 1.83073 -0.0999065 0.0709342 -20.7045 -0.118156 0.0324649 -0.6918 -0.118159 0.0324564 80.6819 -51.0015 -114.498 30.8746 -8.84433 11.4648 -12.7937 -19.6427 -40.035 -4.08741 -0.532656 7.03572 -102.905 -42.7675 56.6723 -33.1768 9.11987 6.06954 3.37927 10.7634 -27.7076 11.6343 1.07452 5.09155 17.5576 3.49411 0.27608 -2.05776 3.37973 1.83753 
35.078 97.406 -243.15 -37.5551 -83.4743 -37.5591 -172.963 8.11681 87.5963 -7.75835 13.8063 -2.18234 60.7987 8.18324 17.3567 35.9293 7.35103 -29.0628 178.918 9.87754 92.2893 -14.8219 3.38823 0.221959 67.5152 -2.41334 -1.28247 30.1492 -1.12984 23.3577 -0.0546909 6.68887 -89.9784 13.4961 -0.0979588 0.055864 1.82517 -0.0953979 0.0601168 -20.71 -0.11022 0.0238382 -0.697357 -0.110221 0.0238435 80.1302 -51.1955 -115.231 28.8911 -9.50699 10.1213 -12.9591 -17.7273 -43.4787 -5.97384 -0.682503 6.8239 -103.068 -42.9065 56.4891 -32.2421 8.89622 5.92891 3.79336 10.6939 -28.6476 11.0332 1.02136 5.07189 16.5875 3.72111 -0.131114 -1.31302 3.76207 2.40892 
35.0645 97.3092 -242.915 -38.369 -83.3594 -38.5348 -172.978 8.05737 87.4799 -7.78662 15.5482 -2.45475 59.8334 8.66561 19.9285 37.8528 8.60824 -29.3619 178.967 9.91071 92.2193 -15.2257 3.1893 0.0477252 68.2551 -2.63888 -1.39267 29.7985 -1.17139 22.4094 -0.0625709 6.69887 -89.9502 13.4762 -0.0999712 0.112645 1.80524 -0.0949126 0.116934 -20.7299 -0.129201 0.077393 -0.717285 -0.129204 0.077394 80.2562 -50.9696 -115.134 28.0809 -9.93069 8.31262 -13.0545 -16.5044 -45.8056 -6.02846 -0.677067 6.65131 -103.458 -42.9237 55.903 -31.3476 8.26584 5.61628 4.18926 10.0417 -29.7323 12.4167 1.07129 4.56361 16.5487 3.63972 0.0465791 -1.48742 3.64232 2.71161 
35.0691 97.243 -242.67 -38.4603 -83.4984 -38.7826 -173.325 7.89211 87.1261 -8.09138 14.8173 -2.11908 59.9936 9.38832 20.0499 38.4145 8.99207 -29.0463 178.96 9.94956 92.1042 -15.9276 3.63459 -0.0903606 68.8915 -2.72212 -1.42401 29.412 -1.32605 23.2766 -0.0645737 6.71332 -89.9108 13.4473 -0.0848705 0.189508 1.77635 -0.0764472 0.193058 -20.7587 -0.137903 0.155244 -0.746114 -0.137913 0.155227 80.061 -51.0831 -115.375 27.9447 -9.49369 6.9356 -13.4668 -16.0445 -46.5647 -7.52807 -0.822482 7.01324 -103.222 -42.9273 56.2638 -30.7793 8.16953 4.98658 4.65463 9.56767 -31.6288 12.611 1.13845 4.95518 16.0885 3.91976 0.512139 -1.69117 3.78206 2.70047 
35.2282 97.2057 -242.191 -36.4463 -83.9314 -36.7337 -173.579 7.59273 86.9209 -8.68288 13.6999 -1.70064 60.9513 10.0454 19.0521 37.4909 8.34411 -30.1113 178.713 9.28637 91.9347 -15.7751 3.25842 0.0317354 69.0957 -2.69328 -1.40217 29.3885 -1.28211 22.4534 -0.0502484 6.76089 -89.8864 13.3521 -0.0447552 0.232969 1.68109 -0.0344689 0.234705 -20.8539 -0.112708 0.208749 -0.841281 -0.112707 0.208743 79.9751 -51.489 -115.343 27.3709 -9.83681 5.5572 -13.835 -16.5943 -46.6439 -6.66601 -0.72165 6.39177 -102.985 -42.9035 56.6149 -30.6308 7.81544 4.05503 5.35919 9.60158 -33.2512 13.4708 1.19603 4.8603 15.9086 3.92978 0.655419 -2.34271 3.73585 2.64355 
35.4899 97.1329 -241.535 -32.934 -83.935 -33.0458 -173.315 7.50413 87.0044 -8.88546 14.382 -1.99931 61.2589 10.8428 19.8538 38.71 9.15965 -29.586 178.8 9.02687 91.9883 -15.7628 3.68094 -0.0914056 69.6457 -2.84691 -1.47481 29.462 -1.28265 22.8055 0.0112611 6.77984 -89.8995 13.3141 0.0709067 0.192164 1.64315 0.0793021 0.188845 -20.8919 0.00987666 0.204589 -0.879239 0.00987839 0.204587 80.1518 -51.3725 -115.13 27.5141 -9.55672 5.05437 -14.0268 -16.9336 -46.3116 -6.64511 -0.714971 6.21852 -103.16 -42.9619 56.3749 -30.7495 7.91838 3.36389 5.31714 8.78728 -34.3667 13.6613 1.10612 4.0888 15.5912 3.98612 0.57431 -2.22266 3.82047 2.68047 
35.8475 96.9098 -240.772 -21.9677 -84.335 -22.174 -173.757 7.52052 86.5714 -9.55585 16.3462 -1.87932 61.0991 12.053 22.0373 39.8017 9.96334 -28.1696 179.024 9.24598 91.9615 -17.0219 4.764 -0.504133 70.6853 -3.07399 -1.57493 30.4626 -0.974932 21.9645 -0.0259334 6.81441 -89.8973 13.245 -0.00192284 0.205657 1.57402 0.0071269 0.205543 -20.961 -0.0636472 0.195576 -0.948363 -0.0636473 0.195565 80.897 -50.8551 -114.237 28.0246 -9.87167 5.25587 -14.2454 -17.1152 -46.6145 -5.89757 -0.650946 6.08524 -103.468 -43.1808 56.0111 -30.8769 8.38401 3.02454 5.25133 8.64358 -34.9034 12.8215 0.970387 3.58234 15.5491 3.9543 0.565331 -2.64374 3.78731 2.82038 
36.4703 96.6248 -240.016 -15.7931 -83.7028 -15.4609 -174.042 9.30762 86.4575 -12.5104 16.8614 -1.59966 61.8832 12.6971 22.9872 40.2457 10.104 -30.3846 179.661 10.701 92.4419 -19.2212 5.71427 -1.04683 71.337 -3.67031 -1.87776 33.1393 -0.255254 20.9649 -0.0208313 6.79952 -89.946 13.2748 -0.0152352 0.109999 1.60389 -0.0103908 0.110554 -20.9312 -0.0475972 0.100333 -0.918591 -0.0476025 0.100321 79.0093 -51.231 -116.85 27.163 -9.26584 7.15449 -13.1099 -16.443 -45.7888 -6.73491 -0.665929 5.01382 -103.289 -43.2391 56.3078 -31.2251 9.52733 2.32777 5.44136 10.2508 -34.6558 14.0275 1.27757 5.10276 15.1145 4.23873 0.562646 -2.51727 4.06625 2.66266 
36.8692 96.0889 -239.267 -15.7936 -83.7126 -15.3196 -173.84 10.2141 86.2033 -16.0419 12.2257 -1.15219 67.3285 15.1628 18.105 37.6446 8.17834 -37.14 -179.701 14.4255 93.0706 -26.4704 8.06577 -1.84101 70.5178 -4.05763 -2.10031 40.1875 1.36896 18.5608 0.012551 6.88947 -89.9222 13.0958 0.0624851 0.149537 1.42488 0.0690084 0.146633 -21.1103 0.0146503 0.161418 -1.09764 0.0146469 0.161391 79.499 -51.2646 -116.124 27.8924 -8.26965 8.31447 -13.048 -15.8422 -46.0084 -5.92139 -0.688906 7.25495 -102.928 -42.5481 56.5353 -31.2397 10.2294 2.15684 4.98963 9.83629 -34.7927 13.3121 1.14729 4.59954 14.2463 4.29095 -0.311532 -2.68165 4.37058 3.20886 
37.2543 95.6596 -238.388 -21.1689 -83.7782 -21.5109 -174.001 9.59301 85.2604 -16.679 14.3363 -1.5445 66.1658 15.752 21.2567 41.2311 10.4212 -34.2373 -179.71 21.1321 92.4703 -38.123 7.47039 -2.42481 68.1891 -3.72044 -1.9932 47.0603 2.44237 13.1215 -0.0505512 7.04918 -89.7751 12.7748 0.00723005 0.448232 1.10375 0.026954 0.447478 -21.4308 -0.127811 0.429689 -1.41815 -0.127818 0.429681 79.8235 -51.0487 -115.736 28.7053 -8.37224 8.33907 -12.5582 -16.3293 -44.3302 -5.72245 -0.667654 7.20719 -103.029 -42.2763 56.2515 -29.6194 10.4078 1.96177 5.28679 9.88651 -35.7688 12.601 1.04442 4.25243 13.1386 4.61942 -0.284002 -2.10086 4.67855 2.59057 
37.8944 95.6329 -236.612 -16.9904 -83.6318 -16.1292 -173.736 8.73078 86.0306 -16.7024 12.9783 -1.25079 67.8158 16.6781 20.1177 42.6092 10.8328 -38.8182 -179.77 25.4258 93.4208 -39.1178 7.13015 -1.60874 67.3245 -3.50342 -1.90407 47.1049 2.48139 13.6528 -0.187475 7.10127 -89.9381 12.6716 -0.342746 0.163688 1.00072 -0.335218 0.178602 -21.5348 -0.376097 0.0531029 -1.5222 -0.376102 0.053098 79.2766 -51.3625 -116.409 28.7602 -7.68862 10.4472 -13.5518 -16.9899 -44.5364 -8.91259 -0.957731 7.31704 -103.616 -42.2216 55.3262 -27.7863 10.4768 1.11858 5.21633 9.49963 -36.209 10.733 0.90011 4.23789 11.6027 5.11218 -0.180273 -2.34739 5.14641 2.89929 
